<?xml version="1.0" standalone="no"?>
<!DOCTYPE svg PUBLIC "-//W3C//DTD SVG 20010904//EN"
 "http://www.w3.org/TR/2001/REC-SVG-20010904/DTD/svg10.dtd">
<svg version="1.0" xmlns="http://www.w3.org/2000/svg"
 width="400.000000pt" height="400.000000pt" viewBox="0 0 400.000000 400.000000"
 preserveAspectRatio="xMidYMid meet">

<g transform="translate(0.000000,400.000000) scale(0.100000,-0.100000)"
fill="#203c6c" stroke="none">
<path d="M1800 3989 c-277 -29 -584 -130 -817 -269 -209 -126 -434 -325 -571
-507 -502 -664 -547 -1547 -116 -2256 83 -136 167 -241 293 -368 231 -231 484
-387 796 -488 555 -182 1155 -111 1658 195 322 196 605 512 762 849 258 552
258 1157 0 1710 -155 333 -435 647 -753 845 -370 229 -820 333 -1252 289z
m350 -1004 c567 -86 945 -632 825 -1193 -61 -290 -253 -542 -515 -676 -626
-322 -1370 76 -1451 778 -47 401 170 805 531 990 118 60 202 86 360 110 58 8
161 5 250 -9z"/>
</g>
 <circle fill="#5be5ea" cx="200" cy="200" r="100"/>
</svg>
